<svg width="40" height="40" viewBox="0 0 40 40" fill="none" xmlns="http://www.w3.org/2000/svg">
<g filter="url(#filter0_i_15_1068)">
<path d="M13.3334 22.3077H11.1111C9.7778 22.3077 8.88892 21.6923 8.88892 20.7692V19.2308C8.88892 18.3077 9.7778 17.6923 11.1111 17.6923H13.3334C14.6667 17.6923 15.5556 18.3077 15.5556 19.2308V20.7692C15.5556 21.6923 14.6667 22.3077 13.3334 22.3077Z" fill="#1E9E9E"/>
</g>
<g filter="url(#filter1_i_15_1068)">
<path d="M28.8888 22.3077H26.6666C25.3332 22.3077 24.4443 21.6923 24.4443 20.7692V19.2308C24.4443 18.3077 25.3332 17.6923 26.6666 17.6923H28.8888C30.2221 17.6923 31.111 18.3077 31.111 19.2308V20.7692C31.111 21.6923 30.2221 22.3077 28.8888 22.3077Z" fill="#1E9E9E"/>
</g>
<g filter="url(#filter2_i_15_1068)">
<path d="M20.2778 0C22.7222 0 24.7222 1.38462 24.7222 3.07692C24.7222 4.76923 22.7222 6.15385 20.2778 6.15385C17.8333 6.15385 15.8333 4.76923 15.8333 3.07692C15.8333 1.38462 17.8333 0 20.2778 0Z" fill="#1E9E9E"/>
</g>
<path d="M20 40C14 40 9.11111 37.5385 8.88889 33.5385C6.44444 33.0769 3.77778 32.3077 1.11111 31.3846L0 30.9231V23.8461C0 16.7692 7.77778 10.9231 17.7778 10.1538V5.38461H22.2222V10.1538C32.2222 10.9231 40 16.7692 40 23.8461V30.9231L38.8889 31.3846C36.8889 32.1538 34.2222 32.9231 31.1111 33.5385C30.8889 37.5385 26 40 20 40ZM13.5556 34.1538C14.4444 36.1538 16.8889 36.9231 20 36.9231C23.1111 36.9231 25.7778 36.1538 26.4444 34.1538C22.8889 34.6154 19.1111 34.7692 13.5556 34.1538ZM4.44444 29.0769C10.4444 31.0769 16.2222 31.5385 20 31.5385C26.6667 31.5385 32 30.3077 35.5556 29.0769V26.7692C31.5556 28.1538 25.5556 28.4615 20 28.4615C14.4444 28.4615 8.44444 28.1538 4.44444 26.7692V29.0769ZM4.66667 22.7692C4.88889 23.8462 9.55556 25.3846 20.2222 25.3846C29.7778 25.3846 35.5556 24 35.7778 22.7692C35.1111 17.3846 28.4444 13.0769 20.2222 13.0769C12 13.0769 5.33333 17.3846 4.66667 22.7692Z" fill="white"/>
<defs>
<filter id="filter0_i_15_1068" x="8.88892" y="17.6923" width="6.66669" height="8.61539" filterUnits="userSpaceOnUse" color-interpolation-filters="sRGB">
<feFlood flood-opacity="0" result="BackgroundImageFix"/>
<feBlend mode="normal" in="SourceGraphic" in2="BackgroundImageFix" result="shape"/>
<feColorMatrix in="SourceAlpha" type="matrix" values="0 0 0 0 0 0 0 0 0 0 0 0 0 0 0 0 0 0 127 0" result="hardAlpha"/>
<feOffset dy="4"/>
<feGaussianBlur stdDeviation="2"/>
<feComposite in2="hardAlpha" operator="arithmetic" k2="-1" k3="1"/>
<feColorMatrix type="matrix" values="0 0 0 0 0 0 0 0 0 0 0 0 0 0 0 0 0 0 0.25 0"/>
<feBlend mode="normal" in2="shape" result="effect1_innerShadow_15_1068"/>
</filter>
<filter id="filter1_i_15_1068" x="24.4443" y="17.6923" width="6.66669" height="8.61539" filterUnits="userSpaceOnUse" color-interpolation-filters="sRGB">
<feFlood flood-opacity="0" result="BackgroundImageFix"/>
<feBlend mode="normal" in="SourceGraphic" in2="BackgroundImageFix" result="shape"/>
<feColorMatrix in="SourceAlpha" type="matrix" values="0 0 0 0 0 0 0 0 0 0 0 0 0 0 0 0 0 0 127 0" result="hardAlpha"/>
<feOffset dy="4"/>
<feGaussianBlur stdDeviation="2"/>
<feComposite in2="hardAlpha" operator="arithmetic" k2="-1" k3="1"/>
<feColorMatrix type="matrix" values="0 0 0 0 0 0 0 0 0 0 0 0 0 0 0 0 0 0 0.25 0"/>
<feBlend mode="normal" in2="shape" result="effect1_innerShadow_15_1068"/>
</filter>
<filter id="filter2_i_15_1068" x="15.8333" y="0" width="8.88892" height="10.1538" filterUnits="userSpaceOnUse" color-interpolation-filters="sRGB">
<feFlood flood-opacity="0" result="BackgroundImageFix"/>
<feBlend mode="normal" in="SourceGraphic" in2="BackgroundImageFix" result="shape"/>
<feColorMatrix in="SourceAlpha" type="matrix" values="0 0 0 0 0 0 0 0 0 0 0 0 0 0 0 0 0 0 127 0" result="hardAlpha"/>
<feOffset dy="4"/>
<feGaussianBlur stdDeviation="2"/>
<feComposite in2="hardAlpha" operator="arithmetic" k2="-1" k3="1"/>
<feColorMatrix type="matrix" values="0 0 0 0 0 0 0 0 0 0 0 0 0 0 0 0 0 0 0.25 0"/>
<feBlend mode="normal" in2="shape" result="effect1_innerShadow_15_1068"/>
</filter>
</defs>
</svg>
