<svg width="48" height="48" viewBox="0 0 48 48" fill="none" xmlns="http://www.w3.org/2000/svg">
<path d="M5.54 20C4.68 20 4 19.32 4 18.46V13.84C4 8.42 8.42 4 13.84 4H18.46C19.32 4 20 4.68 20 5.54C20 6.4 19.32 7.08 18.46 7.08H13.84C10.1 7.08 7.08 10.12 7.08 13.84V18.46C7.08 19.32 6.38 20 5.54 20Z" fill="white"/>
<path d="M42.46 20C41.62 20 40.92 19.32 40.92 18.46V13.84C40.92 10.1 37.88 7.08 34.16 7.08H29.54C28.68 7.08 28 6.38 28 5.54C28 4.7 28.68 4 29.54 4H34.16C39.58 4 44 8.42 44 13.84V18.46C44 19.32 43.32 20 42.46 20Z" fill="white"/>
<path d="M34.1638 43.9994H31.3838C30.5438 43.9994 29.8438 43.3194 29.8438 42.4594C29.8438 41.6194 30.5238 40.9194 31.3838 40.9194H34.1638C37.9038 40.9194 40.9238 37.8794 40.9238 34.1594V31.3994C40.9238 30.5594 41.6038 29.8594 42.4638 29.8594C43.3038 29.8594 44.0038 30.5394 44.0038 31.3994V34.1594C44.0038 39.5794 39.5838 43.9994 34.1638 43.9994Z" fill="white"/>
<path d="M18.46 44H13.84C8.42 44 4 39.58 4 34.16V29.54C4 28.68 4.68 28 5.54 28C6.4 28 7.08 28.68 7.08 29.54V34.16C7.08 37.9 10.12 40.92 13.84 40.92H18.46C19.3 40.92 20 41.6 20 42.46C20 43.32 19.32 44 18.46 44Z" fill="white"/>
<path d="M36.919 22.461H34.199H13.7991H11.0791C10.2191 22.461 9.53906 23.161 9.53906 24.001C9.53906 24.841 10.2191 25.541 11.0791 25.541H13.7991H34.199H36.919C37.779 25.541 38.459 24.841 38.459 24.001C38.459 23.161 37.779 22.461 36.919 22.461Z" fill="white"/>
<path d="M13.7969 27.881V28.541C13.7969 31.861 16.4769 34.541 19.7969 34.541H28.1968C31.5168 34.541 34.1968 31.861 34.1968 28.541V27.881C34.1968 27.641 34.0168 27.461 33.7768 27.461H14.2169C13.9769 27.461 13.7969 27.641 13.7969 27.881Z" fill="white"/>
<path d="M13.7969 20.121V19.4609C13.7969 16.1409 16.4769 13.4609 19.7969 13.4609H28.1968C31.5168 13.4609 34.1968 16.1409 34.1968 19.4609V20.121C34.1968 20.361 34.0168 20.541 33.7768 20.541H14.2169C13.9769 20.541 13.7969 20.361 13.7969 20.121Z" fill="white"/>
</svg>
