<svg width="45" height="60" viewBox="0 0 45 60" fill="none" xmlns="http://www.w3.org/2000/svg">
<path d="M15 31.25H12.5C11 31.25 10 30.25 10 28.75V26.25C10 24.75 11 23.75 12.5 23.75H15C16.5 23.75 17.5 24.75 17.5 26.25V28.75C17.5 30.25 16.5 31.25 15 31.25Z" fill="black"/>
<path d="M32.5 31.25H30C28.5 31.25 27.5 30.25 27.5 28.75V26.25C27.5 24.75 28.5 23.75 30 23.75H32.5C34 23.75 35 24.75 35 26.25V28.75C35 30.25 34 31.25 32.5 31.25Z" fill="black"/>
<path d="M22.5 0C25.25 0 27.5 2.25 27.5 5C27.5 7.75 25.25 10 22.5 10C19.75 10 17.5 7.75 17.5 5C17.5 2.25 19.75 0 22.5 0Z" fill="black"/>
<path d="M22.5 60C15.75 60 10.25 56 10 49.5C7.25 48.75 4.25 47.5 1.25 46L0 45.25V33.75C0 22.25 8.75 12.75 20 11.5V3.75H25V11.5C36.25 12.75 45 22.25 45 33.75V45.25L43.75 46C41.5 47.25 38.5 48.5 35 49.5C34.75 56 29.25 60 22.5 60ZM15.25 50.5C16.25 53.75 19 55 22.5 55C26 55 29 53.75 29.75 50.5C25.75 51.25 21.5 51.5 15.25 50.5ZM5 42.25C11.75 45.5 18.25 46.25 22.5 46.25C30 46.25 36 44.25 40 42.25V38.5C35.5 40.75 28.75 41.25 22.5 41.25C16.25 41.25 9.5 40.75 5 38.5V42.25ZM5.25 32C5.5 33.75 10.75 36.25 22.75 36.25C33.5 36.25 40 34 40.25 32C39.5 23.25 32 16.25 22.75 16.25C13.5 16.25 6 23.25 5.25 32Z" fill="black"/>
</svg>
