<svg width="35" height="35" viewBox="0 0 35 35" fill="none" xmlns="http://www.w3.org/2000/svg">
<g clip-path="url(#clip0_1_47)">
<path d="M9.7955 20.6422L24.0888 6.3542M10.2018 21.2847L13.4428 27.7669C14.2261 29.3333 14.6176 30.1165 15.111 30.3265C15.5391 30.5088 16.0286 30.4757 16.4284 30.2377C16.8891 29.9634 17.172 29.1347 17.738 27.4773L23.8617 9.54346C24.3549 8.09934 24.6014 7.37728 24.4326 6.89962C24.2858 6.48408 23.959 6.15721 23.5435 6.0104C23.0658 5.84164 22.3437 6.0882 20.8995 6.58131L2.96574 12.7051C1.30835 13.271 0.479656 13.554 0.205329 14.0147C-0.0327438 14.4145 -0.0657316 14.9039 0.116531 15.332C0.32656 15.8253 1.10979 16.217 2.67624 17.0002L9.15831 20.2413C9.41648 20.3704 9.54555 20.4348 9.65725 20.521C9.75657 20.5976 9.84552 20.6865 9.92194 20.7857C10.0083 20.8975 10.0727 21.0266 10.2018 21.2847Z" stroke="white" stroke-width="2.91667" stroke-linecap="round" stroke-linejoin="round"/>
</g>
<defs>
<clipPath id="clip0_1_47">
<rect width="35" height="35" fill="white"/>
</clipPath>
</defs>
</svg>
