<svg width="48" height="48" viewBox="0 0 48 48" fill="none" xmlns="http://www.w3.org/2000/svg">
<path fill-rule="evenodd" clip-rule="evenodd" d="M2.80664 23.9991C2.80664 12.2945 12.2951 2.80606 23.9997 2.80606C35.7043 2.80606 45.1926 12.2945 45.1926 23.9991C45.1926 35.7037 35.7043 45.1923 23.9997 45.1923C12.2951 45.1923 2.80664 35.7037 2.80664 23.9991ZM23.9997 5.84605C13.974 5.84605 5.84666 13.9735 5.84666 23.9991C5.84666 34.0246 13.974 42.1523 23.9997 42.1523C34.0253 42.1523 42.1526 34.0246 42.1526 23.9991C42.1526 13.9735 34.0253 5.84605 23.9997 5.84605ZM26.3998 33.6C26.3998 34.9254 25.3252 36 23.9998 36C22.6743 36 21.5998 34.9254 21.5998 33.6C21.5998 32.2746 22.6743 31.2 23.9998 31.2C25.3252 31.2 26.3998 32.2746 26.3998 33.6ZM19.3601 20C19.3601 17.8308 21.2324 15.76 24.0001 15.76C26.7679 15.76 28.6401 17.8308 28.6401 20C28.6401 21.5718 27.7761 22.3748 26.2863 23.2798C26.12 23.3808 25.9283 23.4922 25.7231 23.6113C25.1369 23.9518 24.4412 24.3558 23.9184 24.7632C23.1428 25.3674 22.2401 26.3423 22.2401 27.84C22.2401 28.812 23.0281 29.6 24.0001 29.6C24.9677 29.6 25.7529 28.8192 25.7601 27.8534L25.7618 27.8506C25.7896 27.8067 25.8718 27.7035 26.0819 27.5398C26.4066 27.2868 26.7683 27.0772 27.2501 26.798C27.5014 26.6524 27.7855 26.4877 28.1139 26.2882C29.8241 25.2492 32.16 23.5322 32.16 20C32.16 15.7693 28.5924 12.24 24.0001 12.24C19.4079 12.24 15.8401 15.7693 15.8401 20C15.8401 20.972 16.6281 21.76 17.6001 21.76C18.5721 21.76 19.3601 20.972 19.3601 20Z" fill="white"/>
</svg>
