<svg width="22" height="22" viewBox="0 0 22 22" fill="none" xmlns="http://www.w3.org/2000/svg">
<path d="M12.6461 20.0065L11.5561 21.0965C11.0945 21.5581 10.3482 21.5581 9.89153 21.0965L0.346167 11.5561C-0.115389 11.0945 -0.115389 10.3482 0.346167 9.89153L9.89153 0.346167C10.3531 -0.115389 11.0994 -0.115389 11.5561 0.346167L12.6461 1.43622C13.1126 1.90269 13.1028 2.66377 12.6265 3.12041L6.70974 8.75728H20.8216C21.4746 8.75728 22 9.28267 22 9.93572V11.507C22 12.16 21.4746 12.6854 20.8216 12.6854H6.70974L12.6265 18.3223C13.1077 18.7789 13.1175 19.54 12.6461 20.0065Z" fill="black"/>
</svg>
