<svg width="57" height="12" viewBox="0 0 57 12" fill="none" xmlns="http://www.w3.org/2000/svg">
<path d="M28.5 0C29.6274 0 30.7294 0.3343 31.6667 0.960624C32.6041 1.58695 33.3347 2.47717 33.7661 3.5187C34.1975 4.56024 34.3104 5.70632 34.0905 6.81202C33.8705 7.91771 33.3277 8.93335 32.5305 9.73051C31.7333 10.5277 30.7177 11.0705 29.612 11.2905C28.5063 11.5104 27.3602 11.3975 26.3187 10.9661C25.2772 10.5347 24.3869 9.80411 23.7606 8.86675C23.1343 7.92939 22.8 6.82735 22.8 5.7C22.8 4.18827 23.4005 2.73845 24.4695 1.66949C25.5384 0.600533 26.9883 0 28.5 0ZM0 5.7C0 6.82735 0.334299 7.92939 0.960623 8.86675C1.58695 9.80411 2.47717 10.5347 3.5187 10.9661C4.56024 11.3975 5.70632 11.5104 6.81201 11.2905C7.91771 11.0705 8.93335 10.5277 9.73051 9.73051C10.5277 8.93335 11.0705 7.91771 11.2905 6.81202C11.5104 5.70632 11.3975 4.56024 10.9661 3.5187C10.5347 2.47717 9.80411 1.58695 8.86675 0.960624C7.92939 0.3343 6.82735 0 5.7 0C4.18827 0 2.73845 0.600533 1.66949 1.66949C0.600534 2.73845 0 4.18827 0 5.7ZM45.6 5.7C45.6 6.82735 45.9343 7.92939 46.5606 8.86675C47.1869 9.80411 48.0772 10.5347 49.1187 10.9661C50.1602 11.3975 51.3063 11.5104 52.412 11.2905C53.5177 11.0705 54.5333 10.5277 55.3305 9.73051C56.1277 8.93335 56.6705 7.91771 56.8905 6.81202C57.1104 5.70632 56.9975 4.56024 56.5661 3.5187C56.1347 2.47717 55.4041 1.58695 54.4667 0.960624C53.5294 0.3343 52.4273 0 51.3 0C49.7883 0 48.3384 0.600533 47.2695 1.66949C46.2005 2.73845 45.6 4.18827 45.6 5.7Z" fill="#4ECB81"/>
</svg>
