<svg width="48" height="48" viewBox="0 0 48 48" fill="none" xmlns="http://www.w3.org/2000/svg">
<path d="M32 20C34.2091 20 36 18.2091 36 16C36 13.7909 34.2091 12 32 12C29.7909 12 28 13.7909 28 16C28 18.2091 29.7909 20 32 20Z" stroke="white" stroke-width="2.6875"/>
<path d="M4 25.0002L7.50318 21.935C9.32572 20.3404 12.0726 20.4318 13.785 22.1442L22.3644 30.7236C23.7388 32.0982 25.9024 32.2856 27.4928 31.1678L28.0892 30.7488C30.3776 29.1404 33.4738 29.3268 35.553 31.198L42 37.0002" stroke="white" stroke-width="2.6875" stroke-linecap="round"/>
<path d="M44 24C44 33.428 44 38.1422 41.071 41.071C38.1422 44 33.428 44 24 44C14.5719 44 9.85786 44 6.92894 41.071C4 38.1422 4 33.428 4 24C4 14.5719 4 9.85786 6.92894 6.92894C9.85786 4 14.5719 4 24 4C33.428 4 38.1422 4 41.071 6.92894C43.0186 8.87642 43.6712 11.6131 43.8898 16" stroke="white" stroke-width="2.6875" stroke-linecap="round"/>
</svg>
